<!DOCTYPE svg PUBLIC "-//W3C//DTD SVG 1.1//EN" "http://www.w3.org/Graphics/SVG/1.1/DTD/svg11.dtd">
<!-- Uploaded to: SVG Repo, www.svgrepo.com, Transformed by: SVG Repo Mixer Tools -->
<svg fill="#ffffff" height="800px" width="800px" version="1.1" id="Layer_1" xmlns="http://www.w3.org/2000/svg" xmlns:xlink="http://www.w3.org/1999/xlink" viewBox="0 0 512 512" xml:space="preserve" stroke="#ffffff">
<g id="SVGRepo_bgCarrier" stroke-width="0"/>
<g id="SVGRepo_tracerCarrier" stroke-linecap="round" stroke-linejoin="round"/>
<g id="SVGRepo_iconCarrier"> <g> <g> <path d="M256,0C115.2,0,0,115.2,0,256s115.2,256,256,256s256-115.2,256-256S396.8,0,256,0z M256,494.933 c-131.413,0-238.933-107.52-238.933-238.933S124.587,17.067,256,17.067S494.933,124.587,494.933,256S387.413,494.933,256,494.933z "/> </g> </g> <g> <g> <path d="M366.933,378.88l-102.4-194.56c-3.413-5.973-12.8-5.973-15.36,0l-102.4,194.56c-2.56,3.413-0.853,8.533,3.413,11.093 c3.413,2.56,8.533,0.853,11.093-3.413L256,206.507l94.72,180.053c1.707,2.56,4.267,4.267,7.68,4.267c1.707,0,2.56,0,5.12-0.853 C367.787,388.267,369.493,383.147,366.933,378.88z"/> </g> </g> <g> <g> <path d="M467.627,377.173l-110.933-151.04c-1.707-1.707-4.267-3.413-6.827-3.413s-5.12,0.853-6.827,2.56l-45.227,49.493 c-1.707,2.56-2.56,5.973-0.853,9.387l53.76,101.547c1.707,2.56,4.267,4.267,7.68,4.267c1.707,0,2.56,0,4.267,0 c4.267-1.707,5.973-6.827,3.413-11.093l-51.2-96.427l34.133-37.547l104.96,142.507c2.56,3.413,7.68,4.267,11.947,1.707 C469.333,386.56,470.187,380.587,467.627,377.173z"/> </g> </g> <g> <g> <path d="M214.187,274.773l-45.227-50.347c-1.707-1.707-4.267-2.56-6.827-2.56s-5.12,1.707-6.827,3.413L44.373,378.88 c-2.56,4.267-1.707,9.387,1.707,11.947c4.267,2.56,9.387,1.707,11.947-1.707l104.96-145.067l34.133,38.4l-51.2,98.133 c-2.56,3.413-0.853,8.533,3.413,11.093c1.707,0.853,2.56,0.853,4.267,0.853c3.413,0,5.973-1.707,7.68-5.12l53.76-103.253 C216.747,281.6,216.747,277.333,214.187,274.773z"/> </g> </g> <g> <g> <path d="M187.733,119.467c-33.28,0-51.2,17.92-51.2,51.2c0,5.12,3.413,8.533,8.533,8.533c5.12,0,8.533-3.413,8.533-8.533 c0-23.893,10.24-34.133,34.133-34.133c5.12,0,8.533-3.413,8.533-8.533S192.853,119.467,187.733,119.467z"/> </g> </g> <g> <g> <path d="M110.933,128c-5.12,0-8.533,3.413-8.533,8.533s3.413,8.533,8.533,8.533c18.773,0,25.6,6.827,25.6,25.6 c0,5.12,3.413,8.533,8.533,8.533c5.12,0,8.533-3.413,8.533-8.533C153.6,142.507,139.093,128,110.933,128z"/> </g> </g> <g> <g> <path d="M340.48,77.653c-3.413-10.24-13.653-17.92-24.747-17.92c-11.947,0-21.333,7.68-24.747,17.92 c-10.24,3.413-17.92,12.8-17.92,24.747s7.68,21.333,17.92,24.747c3.413,10.24,12.8,17.92,24.747,17.92H332.8 c18.773,0,34.133-15.36,34.133-34.133C366.933,94.72,355.84,81.067,340.48,77.653z M332.8,128h-17.067 c-5.12,0-8.533-3.413-8.533-8.533s-3.413-8.533-8.533-8.533s-8.533-3.413-8.533-8.533s3.413-8.533,8.533-8.533 s8.533-3.413,8.533-8.533c0-5.12,3.413-8.533,8.533-8.533s8.533,3.413,8.533,8.533c0,5.12,3.413,8.533,8.533,8.533 c9.387,0,17.067,7.68,17.067,17.067S342.187,128,332.8,128z"/> </g> </g> <g> <g> <path d="M296.96,247.467l-32.427-64c-3.413-5.973-12.8-5.973-15.36,0l-31.573,61.44c-1.707,3.413-0.853,7.68,1.707,10.24 l31.573,32.427c1.707,1.707,3.413,2.56,5.973,2.56c1.707,0,4.267-0.853,5.973-2.56l32.427-29.867 C297.813,255.147,298.667,250.88,296.96,247.467z M257.707,269.653l-22.187-22.187l21.333-40.96l23.04,43.52L257.707,269.653z"/> </g> </g> <g> <g> <path d="M290.133,375.467H119.467c-5.12,0-8.533,3.413-8.533,8.533s3.413,8.533,8.533,8.533h170.667 c5.12,0,8.533-3.413,8.533-8.533S295.253,375.467,290.133,375.467z"/> </g> </g> </g>
</svg>